# xmcd CD database file
#
# Track frame offsets:
#	150
#	13310
#	25052
#	37205
#	51262
#	65582
#	81052
#	94887
#	106042
#	118562
#	129582
#	143867
#	154830
#	170610
#	185845
#	202587
#	222937
#	233822
#	247840
#	261065
#	275437
#	289877
#	303770
#	318887
#	330990
#
# Disc length: 4625 seconds
#
# Revision: 0
# Processed by: cddbd v1.4PL0 Copyright (c) Steve Scherf et al.
# Submitted via: CDex 1.50
#
DISCID=60120f19
DTITLE=Various Artist - Make Mine Mambo
DYEAR=1996
DGENRE=Salsa
TTITLE0=Orquesta Riverside - Mambo
TTITLE1=Conjunto Roberto Faz - Oriente, Cuna Florida
TTITLE2=Chico O'Farrill y su Orquesta - El Manicero
TTITLE3=Orquesta Aragon - El Bodeguero
TTITLE4=Orquesta Hermanos Castro - La Prieta Linda
TTITLE5=Beny More y su Orquesta - Locas por el Mambo
TTITLE6=Orquesta Almendra - Almendra
TTITLE7=Bebo Valdes - Cactus Mambo
TTITLE8=Los Zafiros - Hermosa Habana
TTITLE9=Orquesta Hermanos Castro - Fiesta En Sax
TTITLE10=Tito Gomez/Orquesta Riverside - Yo Me Voy a Pinar del Rio
TTITLE11=Beny More y su Orquesta - Francisco Guayabal
TTITLE12=Orquesta Gilberto Valdes - Mambo Rumbon
TTITLE13=Orquesta Riverside - Mambo Mambi
TTITLE14=Tito Gomez/Orquesta Riverside - Ahora Seremos Fleices
TTITLE15=Orquesta America - La Basura
TTITLE16=Rita Montaner - !Ay! Que Sosphecha
TTITLE17=Orquesta Riverside - Mocambo
TTITLE18=Conjunto Casino - Guemba
TTITLE19=Orquesta Riverside - Ritmando el Cha cha cha
TTITLE20=Beny More y su Orquesta - Encantando de la Vida
TTITLE21=Chico O'Farrill y su Orquesta - La Malanguena
TTITLE22=Orquesta Arcano -Rico Melao
TTITLE23=Orquesta Riverside - Penthouse Mambo
TTITLE24=Beny More - Oh, Vida
EXTD=YEAR: 1996
EXTT0=
EXTT1=
EXTT2=
EXTT3=
EXTT4=
EXTT5=
EXTT6=
EXTT7=
EXTT8=
EXTT9=
EXTT10=
EXTT11=
EXTT12=
EXTT13=
EXTT14=
EXTT15=
EXTT16=
EXTT17=
EXTT18=
EXTT19=
EXTT20=
EXTT21=
EXTT22=
EXTT23=
EXTT24=
PLAYORDER=
